<svg width="34" height="33" viewBox="0 0 34 33" fill="none" xmlns="http://www.w3.org/2000/svg">
<path d="M33.8721 18.3944C32.8012 26.9578 25.002 32.4511 16.5442 32.0947C7.50811 32.0342 -0.12516 25.2615 0.00155536 16.0477C-0.0410247 12.8477 0.903579 9.71205 2.70718 7.06636C4.51079 4.42067 7.08605 2.39304 10.0835 1.25866C13.6815 -0.222031 18.5216 -0.377047 22.316 0.692042C24.6665 1.36662 26.8463 2.5328 28.7106 4.11313C28.7569 4.15632 28.7854 4.21515 28.7907 4.27817C28.7959 4.34119 28.7775 4.40391 28.739 4.45412C28.7005 4.50434 28.6447 4.53847 28.5824 4.54987C28.5201 4.56127 28.4557 4.54913 28.4019 4.51582C27.4203 3.86189 26.1977 3.09037 24.9609 2.43288C24.8324 2.36339 24.7343 2.57008 24.8592 2.64491C26.444 3.59997 28.3002 5.38891 29.0051 7.53421C29.0232 7.59185 29.0202 7.65402 28.9966 7.70964C28.973 7.76526 28.9304 7.81072 28.8764 7.8379C28.8224 7.86508 28.7605 7.87221 28.7017 7.85804C28.6429 7.84386 28.591 7.8093 28.5554 7.76051C26.0246 3.92248 20.1047 1.40299 14.7434 2.38477C14.6785 2.39453 14.6199 2.42903 14.58 2.48101C14.5401 2.53299 14.5219 2.59841 14.5293 2.66349C14.5367 2.72857 14.5691 2.78826 14.6197 2.82999C14.6703 2.87172 14.7351 2.89224 14.8005 2.88724C18.6234 2.75717 22.5516 3.80309 24.2185 6.20676C24.2533 6.25726 24.2686 6.31857 24.2618 6.37946C24.2549 6.44035 24.2264 6.49675 24.1813 6.53831C24.1362 6.57987 24.0776 6.60381 24.0162 6.60575C23.9549 6.60769 23.8949 6.58749 23.8473 6.54887C22.3463 5.32476 19.2587 3.61066 14.8041 4.1256C12.0966 4.4392 9.43204 5.98938 7.73655 8.02778C7.6904 8.07669 7.6656 8.1419 7.66761 8.20906C7.66961 8.27623 7.69827 8.33984 7.74726 8.38592C7.79625 8.43199 7.86157 8.45675 7.92884 8.45475C7.99612 8.45274 8.05984 8.42414 8.10599 8.37523C9.05499 7.50295 10.1212 6.7671 11.2739 6.18895C12.8641 5.33902 17.5383 4.26815 20.8775 6.31902C20.9294 6.35371 20.9667 6.4062 20.9824 6.46655C20.9982 6.52689 20.9912 6.59091 20.9628 6.64646C20.9344 6.70201 20.8867 6.74524 20.8285 6.76797C20.7703 6.7907 20.7059 6.79137 20.6473 6.76982C19.1548 6.19779 17.551 5.9747 15.9588 6.11767C9.05011 6.74487 5.63772 13.9113 8.0114 20.0604C10.9723 27.3765 20.3724 27.6384 24.4202 22.6369C24.4617 22.5886 24.5196 22.5574 24.5829 22.5494C24.6461 22.5414 24.71 22.5571 24.7623 22.5935C24.8146 22.6299 24.8514 22.6844 24.8657 22.7464C24.88 22.8085 24.8707 22.8735 24.8396 22.9291C23.1619 25.9439 19.8959 26.776 17.5561 26.9417C17.4923 26.9471 17.4329 26.9761 17.3896 27.0232C17.3463 27.0702 17.3222 27.1317 17.3222 27.1956C17.3222 27.2595 17.3463 27.3211 17.3896 27.3681C17.4329 27.4152 17.4923 27.4442 17.5561 27.4496C24.2649 28.1623 29.9225 22.2734 29.719 14.3799C29.7158 14.3169 29.7362 14.2549 29.7764 14.2061C29.8166 14.1573 29.8736 14.1254 29.9363 14.1164C29.9989 14.1075 30.0626 14.1223 30.1149 14.1578C30.1671 14.1934 30.2042 14.2472 30.2187 14.3087C30.5286 15.4005 30.6701 16.533 30.6381 17.6674C30.6365 17.7297 30.6579 17.7904 30.6981 17.8381C30.7383 17.8858 30.7946 17.9171 30.8564 17.9261C30.9182 17.9351 30.9812 17.9212 31.0333 17.887C31.0855 17.8528 31.1234 17.8006 31.1397 17.7404C31.6751 15.7145 31.7607 13.4142 31.1236 10.2907C31.1083 10.23 31.1159 10.1658 31.145 10.1103C31.1741 10.0548 31.2226 10.012 31.2813 9.98998C31.34 9.96795 31.4047 9.96827 31.4632 9.99086C31.5217 10.0135 31.5698 10.0568 31.5983 10.1125C32.3224 11.5777 32.7804 13.1595 32.9511 14.7844C32.9582 14.8487 32.9892 14.9079 33.0381 14.9503C33.0869 14.9927 33.15 15.0151 33.2147 15.0131C33.2794 15.011 33.3409 14.9847 33.387 14.9393C33.4331 14.894 33.4604 14.8329 33.4634 14.7684C33.4736 14.7065 33.5065 14.6506 33.5557 14.6116C33.6049 14.5726 33.6668 14.5532 33.7295 14.5572C33.7922 14.5612 33.8512 14.5883 33.895 14.6332C33.9388 14.6782 33.9644 14.7378 33.9667 14.8004C34.0325 15.999 34.0008 17.2009 33.8721 18.3944Z" fill="#53A4DB"/>
</svg>
