<svg width="34" height="32" viewBox="0 0 34 32" fill="none" xmlns="http://www.w3.org/2000/svg">
<path d="M33.7549 18.3307C32.6877 26.8645 24.9155 32.3388 16.4869 31.9837C7.48213 31.9233 -0.124727 25.1741 0.00154998 15.9922C-0.0408827 12.8032 0.900452 9.67844 2.69782 7.04191C4.49518 4.40537 7.06153 2.38476 10.0486 1.2543C13.6341 -0.221262 18.4576 -0.375743 22.2388 0.689647C24.5811 1.36189 26.7534 2.52404 28.6113 4.0989C28.6574 4.14194 28.6858 4.20056 28.6911 4.26337C28.6963 4.32617 28.6779 4.38867 28.6395 4.43871C28.6012 4.48875 28.5455 4.52276 28.4835 4.53413C28.4214 4.54549 28.3573 4.53339 28.3036 4.50019C27.3254 3.84853 26.1071 3.07967 24.8746 2.42446C24.7465 2.35521 24.6487 2.56118 24.7732 2.63576C26.3525 3.58751 28.2022 5.37026 28.9048 7.50814C28.9228 7.56558 28.9198 7.62754 28.8963 7.68297C28.8728 7.7384 28.8303 7.78369 28.7765 7.81078C28.7227 7.83786 28.661 7.84497 28.6024 7.83085C28.5438 7.81672 28.4921 7.78228 28.4566 7.73365C25.9346 3.90891 20.0351 1.39813 14.6924 2.37651C14.6277 2.38624 14.5694 2.42063 14.5296 2.47243C14.4898 2.52423 14.4717 2.58941 14.4791 2.65427C14.4864 2.71913 14.5187 2.77861 14.5691 2.8202C14.6195 2.86178 14.6841 2.88223 14.7493 2.87725C18.5589 2.74763 22.4735 3.78993 24.1347 6.18528C24.1693 6.23561 24.1846 6.2967 24.1778 6.35739C24.171 6.41807 24.1425 6.47426 24.0976 6.51568C24.0527 6.5571 23.9943 6.58096 23.9331 6.5829C23.872 6.58483 23.8122 6.5647 23.7647 6.5262C22.269 5.30633 19.1921 3.59816 14.7528 4.11133C12.0548 4.42384 9.3994 5.96866 7.70978 8C7.66379 8.04874 7.63907 8.11372 7.64107 8.18066C7.64308 8.24759 7.67163 8.31098 7.72045 8.3569C7.76927 8.40281 7.83437 8.42749 7.90141 8.42549C7.96845 8.42349 8.03195 8.39499 8.07794 8.34624C9.02366 7.47698 10.0862 6.74369 11.2349 6.16753C12.8196 5.32055 17.4776 4.25338 20.8052 6.29715C20.857 6.33173 20.8942 6.38404 20.9098 6.44417C20.9255 6.50431 20.9186 6.5681 20.8903 6.62346C20.862 6.67882 20.8144 6.7219 20.7564 6.74455C20.6985 6.76721 20.6342 6.76787 20.5758 6.74639C19.0886 6.17635 17.4902 5.95402 15.9036 6.0965C9.01879 6.72153 5.61821 13.8632 7.98368 19.991C10.9343 27.2818 20.3019 27.5428 24.3357 22.5585C24.377 22.5104 24.4348 22.4794 24.4978 22.4714C24.5608 22.4634 24.6245 22.4791 24.6766 22.5153C24.7287 22.5516 24.7654 22.6059 24.7796 22.6677C24.7939 22.7295 24.7846 22.7944 24.7536 22.8497C23.0818 25.8541 19.827 26.6834 17.4954 26.8485C17.4318 26.8538 17.3726 26.8828 17.3294 26.9297C17.2862 26.9765 17.2623 27.0379 17.2623 27.1015C17.2623 27.1652 17.2862 27.2266 17.3294 27.2734C17.3726 27.3203 17.4318 27.3493 17.4954 27.3546C24.1809 28.0648 29.8189 22.1963 29.6162 14.3302C29.6129 14.2673 29.6333 14.2055 29.6734 14.1569C29.7135 14.1083 29.7703 14.0765 29.8327 14.0676C29.8951 14.0587 29.9586 14.0734 30.0107 14.1088C30.0627 14.1443 30.0997 14.1979 30.1142 14.2592C30.423 15.3472 30.5639 16.4758 30.5321 17.6063C30.5305 17.6684 30.5518 17.7289 30.5919 17.7764C30.632 17.8239 30.6881 17.8551 30.7497 17.8641C30.8112 17.873 30.874 17.8592 30.926 17.8251C30.978 17.791 31.0157 17.739 31.0319 17.6791C31.5655 15.6601 31.6508 13.3678 31.0159 10.2551C31.0006 10.1946 31.0082 10.1306 31.0372 10.0753C31.0662 10.02 31.1145 9.97737 31.173 9.95542C31.2315 9.93346 31.2961 9.93377 31.3543 9.95629C31.4126 9.97881 31.4605 10.022 31.489 10.0775C32.2105 11.5376 32.667 13.114 32.8371 14.7333C32.8441 14.7973 32.875 14.8563 32.9237 14.8985C32.9724 14.9408 33.0353 14.9631 33.0998 14.9611C33.1642 14.9591 33.2256 14.9329 33.2715 14.8877C33.3175 14.8424 33.3446 14.7816 33.3476 14.7173C33.3578 14.6556 33.3906 14.5999 33.4396 14.561C33.4886 14.5222 33.5504 14.5028 33.6128 14.5068C33.6753 14.5108 33.7341 14.5378 33.7777 14.5826C33.8214 14.6274 33.8468 14.6868 33.8491 14.7492C33.9147 15.9436 33.8832 17.1414 33.7549 18.3307Z" fill="#F3F3F3"/>
</svg>
