<svg width="18" height="18" viewBox="0 0 18 18" fill="none" xmlns="http://www.w3.org/2000/svg">
<path d="M17.5303 1.53039C17.8232 1.2375 17.8232 0.762628 17.5303 0.469735C17.2374 0.176841 16.7625 0.176841 16.4696 0.469735L17.5303 1.53039ZM0.46967 16.4697C0.176777 16.7626 0.176777 17.2374 0.46967 17.5303C0.762563 17.8232 1.23744 17.8232 1.53033 17.5303L0.46967 16.4697ZM1.53026 0.46967C1.23737 0.176777 0.762495 0.176777 0.469602 0.46967C0.176709 0.762563 0.176709 1.23744 0.469602 1.53033L1.53026 0.46967ZM16.4695 17.5303C16.7624 17.8232 17.2373 17.8232 17.5302 17.5303C17.8231 17.2374 17.8231 16.7625 17.5302 16.4696L16.4695 17.5303ZM16.4696 0.469735L0.46967 16.4697L1.53033 17.5303L17.5303 1.53039L16.4696 0.469735ZM0.469602 1.53033L16.4695 17.5303L17.5302 16.4696L1.53026 0.46967L0.469602 1.53033Z" fill="#F3F3F3"/>
</svg>
